<mxfile host="app.diagrams.net" modified="2021-03-18T04:17:40.404Z" agent="5.0 (Macintosh; Intel Mac OS X 10_15_6) AppleWebKit/605.1.15 (KHTML, like Gecko) Version/14.0.3 Safari/605.1.15" etag="V0L-OfRD2uY1tL2zEi8C" version="14.4.8" type="github">
  <diagram id="U1bnuGQKikLb_KLcGihO" name="Page-1">
    <mxGraphModel dx="1426" dy="800" grid="1" gridSize="10" guides="1" tooltips="1" connect="1" arrows="1" fold="1" page="1" pageScale="1" pageWidth="827" pageHeight="1169" math="0" shadow="0">
      <root>
        <mxCell id="0" />
        <mxCell id="1" parent="0" />
        <mxCell id="t71am8RYP-MXdgxq2AsJ-11" style="edgeStyle=orthogonalEdgeStyle;rounded=0;orthogonalLoop=1;jettySize=auto;html=1;exitX=0.5;exitY=1;exitDx=0;exitDy=0;" parent="1" source="t71am8RYP-MXdgxq2AsJ-1" target="t71am8RYP-MXdgxq2AsJ-4" edge="1">
          <mxGeometry relative="1" as="geometry" />
        </mxCell>
        <mxCell id="t71am8RYP-MXdgxq2AsJ-1" value="데이터 확보" style="rounded=1;whiteSpace=wrap;html=1;" parent="1" vertex="1">
          <mxGeometry x="90" y="110" width="120" height="60" as="geometry" />
        </mxCell>
        <mxCell id="t71am8RYP-MXdgxq2AsJ-13" style="edgeStyle=orthogonalEdgeStyle;rounded=0;orthogonalLoop=1;jettySize=auto;html=1;exitX=0.5;exitY=1;exitDx=0;exitDy=0;entryX=0.5;entryY=0;entryDx=0;entryDy=0;entryPerimeter=0;" parent="1" source="t71am8RYP-MXdgxq2AsJ-2" target="t71am8RYP-MXdgxq2AsJ-8" edge="1">
          <mxGeometry relative="1" as="geometry" />
        </mxCell>
        <mxCell id="t71am8RYP-MXdgxq2AsJ-2" value="기존 논문 정리&amp;nbsp;&lt;span style=&quot;color: rgba(0 , 0 , 0 , 0) ; font-family: monospace ; font-size: 0px&quot;&gt;%3CmxGraphModel%3E%3Croot%3E%3CmxCell%20id%3D%220%22%2F%3E%3CmxCell%20id%3D%221%22%20parent%3D%220%22%2F%3E%3CmxCell%20id%3D%222%22%20value%3D%22%22%20style%3D%22rounded%3D1%3BwhiteSpace%3Dwrap%3Bhtml%3D1%3B%22%20vertex%3D%221%22%20parent%3D%221%22%3E%3CmxGeometry%20x%3D%2260%22%20y%3D%22100%22%20width%3D%22120%22%20height%3D%2260%22%20as%3D%22geometry%22%2F%3E%3C%2FmxCell%3E%3C%2Froot%3E%3C%2FmxGraphModel%3E&lt;/span&gt;" style="rounded=1;whiteSpace=wrap;html=1;" parent="1" vertex="1">
          <mxGeometry x="370" y="50" width="120" height="60" as="geometry" />
        </mxCell>
        <mxCell id="t71am8RYP-MXdgxq2AsJ-14" style="edgeStyle=orthogonalEdgeStyle;rounded=0;orthogonalLoop=1;jettySize=auto;html=1;exitX=0.5;exitY=1;exitDx=0;exitDy=0;entryX=0.5;entryY=0;entryDx=0;entryDy=0;entryPerimeter=0;" parent="1" source="t71am8RYP-MXdgxq2AsJ-3" target="t71am8RYP-MXdgxq2AsJ-9" edge="1">
          <mxGeometry relative="1" as="geometry" />
        </mxCell>
        <mxCell id="t71am8RYP-MXdgxq2AsJ-15" style="edgeStyle=orthogonalEdgeStyle;rounded=0;orthogonalLoop=1;jettySize=auto;html=1;exitX=0.5;exitY=1;exitDx=0;exitDy=0;" parent="1" source="t71am8RYP-MXdgxq2AsJ-3" target="t71am8RYP-MXdgxq2AsJ-10" edge="1">
          <mxGeometry relative="1" as="geometry" />
        </mxCell>
        <mxCell id="t71am8RYP-MXdgxq2AsJ-3" value="기존 방법론 확보" style="rounded=1;whiteSpace=wrap;html=1;" parent="1" vertex="1">
          <mxGeometry x="620" y="100" width="120" height="60" as="geometry" />
        </mxCell>
        <mxCell id="t71am8RYP-MXdgxq2AsJ-12" style="edgeStyle=orthogonalEdgeStyle;rounded=0;orthogonalLoop=1;jettySize=auto;html=1;exitX=1;exitY=0.5;exitDx=0;exitDy=0;entryX=0;entryY=0.5;entryDx=0;entryDy=0;" parent="1" source="t71am8RYP-MXdgxq2AsJ-4" target="t71am8RYP-MXdgxq2AsJ-5" edge="1">
          <mxGeometry relative="1" as="geometry" />
        </mxCell>
        <mxCell id="t71am8RYP-MXdgxq2AsJ-46" style="edgeStyle=orthogonalEdgeStyle;rounded=0;orthogonalLoop=1;jettySize=auto;html=1;exitX=0.5;exitY=1;exitDx=0;exitDy=0;" parent="1" source="t71am8RYP-MXdgxq2AsJ-4" target="t71am8RYP-MXdgxq2AsJ-45" edge="1">
          <mxGeometry relative="1" as="geometry" />
        </mxCell>
        <mxCell id="t71am8RYP-MXdgxq2AsJ-4" value="부동산 114&lt;span style=&quot;color: rgba(0 , 0 , 0 , 0) ; font-family: monospace ; font-size: 0px&quot;&gt;%3CmxGraphModel%3E%3Croot%3E%3CmxCell%20id%3D%220%22%2F%3E%3CmxCell%20id%3D%221%22%20parent%3D%220%22%2F%3E%3CmxCell%20id%3D%222%22%20value%3D%22%EA%B8%B0%EC%A1%B4%20%EB%85%BC%EB%AC%B8%20%EC%A0%95%EB%A6%AC%26amp%3Bnbsp%3B%26lt%3Bspan%20style%3D%26quot%3Bcolor%3A%20rgba(0%20%2C%200%20%2C%200%20%2C%200)%20%3B%20font-family%3A%20monospace%20%3B%20font-size%3A%200px%26quot%3B%26gt%3B%253CmxGraphModel%253E%253Croot%253E%253CmxCell%2520id%253D%25220%2522%252F%253E%253CmxCell%2520id%253D%25221%2522%2520parent%253D%25220%2522%252F%253E%253CmxCell%2520id%253D%25222%2522%2520value%253D%2522%2522%2520style%253D%2522rounded%253D1%253BwhiteSpace%253Dwrap%253Bhtml%253D1%253B%2522%2520vertex%253D%25221%2522%2520parent%253D%25221%2522%253E%253CmxGeometry%2520x%253D%252260%2522%2520y%253D%2522100%2522%2520width%253D%2522120%2522%2520height%253D%252260%2522%2520as%253D%2522geometry%2522%252F%253E%253C%252FmxCell%253E%253C%252Froot%253E%253C%252FmxGraphModel%253E%26lt%3B%2Fspan%26gt%3B%22%20style%3D%22rounded%3D1%3BwhiteSpace%3Dwrap%3Bhtml%3D1%3B%22%20vertex%3D%221%22%20parent%3D%221%22%3E%3CmxGeometry%20x%3D%22240%22%20y%3D%22100%22%20width%3D%22120%22%20height%3D%2260%22%20as%3D%22geometry%22%2F%3E%3C%2FmxCell%3E%3C%2Froot%3E%3C%2FmxGraphModel%3E&lt;/span&gt;" style="rounded=1;whiteSpace=wrap;html=1;" parent="1" vertex="1">
          <mxGeometry x="10" y="220" width="120" height="60" as="geometry" />
        </mxCell>
        <mxCell id="t71am8RYP-MXdgxq2AsJ-47" style="edgeStyle=orthogonalEdgeStyle;rounded=0;orthogonalLoop=1;jettySize=auto;html=1;exitX=0.5;exitY=1;exitDx=0;exitDy=0;" parent="1" source="t71am8RYP-MXdgxq2AsJ-5" edge="1">
          <mxGeometry relative="1" as="geometry">
            <mxPoint x="140" y="310" as="targetPoint" />
          </mxGeometry>
        </mxCell>
        <mxCell id="t71am8RYP-MXdgxq2AsJ-5" value="네이버 부동산" style="rounded=1;whiteSpace=wrap;html=1;" parent="1" vertex="1">
          <mxGeometry x="150" y="220" width="120" height="60" as="geometry" />
        </mxCell>
        <mxCell id="t71am8RYP-MXdgxq2AsJ-42" style="edgeStyle=orthogonalEdgeStyle;rounded=0;orthogonalLoop=1;jettySize=auto;html=1;exitX=1;exitY=0.5;exitDx=0;exitDy=0;exitPerimeter=0;" parent="1" source="t71am8RYP-MXdgxq2AsJ-8" edge="1">
          <mxGeometry relative="1" as="geometry">
            <mxPoint x="680" y="250" as="targetPoint" />
          </mxGeometry>
        </mxCell>
        <mxCell id="t71am8RYP-MXdgxq2AsJ-8" value="1. &amp;nbsp;머신러닝 + 시계열 비교 논문&lt;br&gt;2. 트렌드 분석 논문" style="shape=cylinder3;whiteSpace=wrap;html=1;boundedLbl=1;backgroundOutline=1;size=15;" parent="1" vertex="1">
          <mxGeometry x="377" y="150" width="106" height="110" as="geometry" />
        </mxCell>
        <mxCell id="t71am8RYP-MXdgxq2AsJ-43" style="edgeStyle=orthogonalEdgeStyle;rounded=0;orthogonalLoop=1;jettySize=auto;html=1;exitX=0.5;exitY=1;exitDx=0;exitDy=0;exitPerimeter=0;entryX=0.5;entryY=0;entryDx=0;entryDy=0;" parent="1" source="t71am8RYP-MXdgxq2AsJ-9" target="t71am8RYP-MXdgxq2AsJ-29" edge="1">
          <mxGeometry relative="1" as="geometry" />
        </mxCell>
        <mxCell id="t71am8RYP-MXdgxq2AsJ-9" value="&amp;lt;머신러닝 기법&amp;gt;&lt;br&gt;&amp;lt;자연언어 처리기법&amp;gt;&lt;br&gt;" style="shape=cylinder3;whiteSpace=wrap;html=1;boundedLbl=1;backgroundOutline=1;size=15;" parent="1" vertex="1">
          <mxGeometry x="557" y="340" width="106" height="110" as="geometry" />
        </mxCell>
        <mxCell id="t71am8RYP-MXdgxq2AsJ-44" style="edgeStyle=orthogonalEdgeStyle;rounded=0;orthogonalLoop=1;jettySize=auto;html=1;exitX=0.5;exitY=1;exitDx=0;exitDy=0;exitPerimeter=0;" parent="1" source="t71am8RYP-MXdgxq2AsJ-10" edge="1">
          <mxGeometry relative="1" as="geometry">
            <mxPoint x="570" y="510" as="targetPoint" />
          </mxGeometry>
        </mxCell>
        <mxCell id="t71am8RYP-MXdgxq2AsJ-10" value="머신러닝 기법에 필요한 거시경제 변수 &lt;br&gt;데이터" style="shape=cylinder3;whiteSpace=wrap;html=1;boundedLbl=1;backgroundOutline=1;size=15;" parent="1" vertex="1">
          <mxGeometry x="697" y="340" width="106" height="110" as="geometry" />
        </mxCell>
        <mxCell id="t71am8RYP-MXdgxq2AsJ-29" value="Cross-Functional Flowchart" style="shape=table;childLayout=tableLayout;rowLines=0;columnLines=0;startSize=40;html=1;whiteSpace=wrap;collapsible=0;recursiveResize=0;expand=0;pointerEvents=0;fontStyle=1;align=center;" parent="1" vertex="1">
          <mxGeometry x="430" y="510" width="280" height="250" as="geometry" />
        </mxCell>
        <mxCell id="t71am8RYP-MXdgxq2AsJ-30" value="랜포&lt;br&gt;" style="swimlane;horizontal=0;points=[[0,0.5],[1,0.5]];portConstraint=eastwest;startSize=40;html=1;whiteSpace=wrap;collapsible=0;recursiveResize=0;expand=0;pointerEvents=0;fontStyle=1" parent="t71am8RYP-MXdgxq2AsJ-29" vertex="1">
          <mxGeometry y="40" width="280" height="70" as="geometry" />
        </mxCell>
        <mxCell id="t71am8RYP-MXdgxq2AsJ-31" value="ACC" style="swimlane;connectable=0;startSize=40;html=1;whiteSpace=wrap;collapsible=0;recursiveResize=0;expand=0;pointerEvents=0;" parent="t71am8RYP-MXdgxq2AsJ-30" vertex="1">
          <mxGeometry x="40" width="80" height="70" as="geometry" />
        </mxCell>
        <mxCell id="t71am8RYP-MXdgxq2AsJ-32" value="recall" style="swimlane;connectable=0;startSize=40;html=1;whiteSpace=wrap;collapsible=0;recursiveResize=0;expand=0;pointerEvents=0;" parent="t71am8RYP-MXdgxq2AsJ-30" vertex="1">
          <mxGeometry x="120" width="80" height="70" as="geometry" />
        </mxCell>
        <mxCell id="t71am8RYP-MXdgxq2AsJ-33" value="f1" style="swimlane;connectable=0;startSize=40;html=1;whiteSpace=wrap;collapsible=0;recursiveResize=0;expand=0;pointerEvents=0;" parent="t71am8RYP-MXdgxq2AsJ-30" vertex="1">
          <mxGeometry x="200" width="80" height="70" as="geometry" />
        </mxCell>
        <mxCell id="t71am8RYP-MXdgxq2AsJ-34" value="SVM" style="swimlane;horizontal=0;points=[[0,0.5],[1,0.5]];portConstraint=eastwest;startSize=40;html=1;whiteSpace=wrap;collapsible=0;recursiveResize=0;expand=0;pointerEvents=0;" parent="t71am8RYP-MXdgxq2AsJ-29" vertex="1">
          <mxGeometry y="110" width="280" height="70" as="geometry" />
        </mxCell>
        <mxCell id="t71am8RYP-MXdgxq2AsJ-35" value="" style="swimlane;connectable=0;startSize=0;html=1;whiteSpace=wrap;collapsible=0;recursiveResize=0;expand=0;pointerEvents=0;" parent="t71am8RYP-MXdgxq2AsJ-34" vertex="1">
          <mxGeometry x="40" width="80" height="70" as="geometry" />
        </mxCell>
        <mxCell id="t71am8RYP-MXdgxq2AsJ-36" value="" style="swimlane;connectable=0;startSize=0;html=1;whiteSpace=wrap;collapsible=0;recursiveResize=0;expand=0;pointerEvents=0;" parent="t71am8RYP-MXdgxq2AsJ-34" vertex="1">
          <mxGeometry x="120" width="80" height="70" as="geometry" />
        </mxCell>
        <mxCell id="t71am8RYP-MXdgxq2AsJ-37" value="" style="swimlane;connectable=0;startSize=0;html=1;whiteSpace=wrap;collapsible=0;recursiveResize=0;expand=0;pointerEvents=0;" parent="t71am8RYP-MXdgxq2AsJ-34" vertex="1">
          <mxGeometry x="200" width="80" height="70" as="geometry" />
        </mxCell>
        <mxCell id="t71am8RYP-MXdgxq2AsJ-38" value="LSTM" style="swimlane;horizontal=0;points=[[0,0.5],[1,0.5]];portConstraint=eastwest;startSize=40;html=1;whiteSpace=wrap;collapsible=0;recursiveResize=0;expand=0;pointerEvents=0;" parent="t71am8RYP-MXdgxq2AsJ-29" vertex="1">
          <mxGeometry y="180" width="280" height="70" as="geometry" />
        </mxCell>
        <mxCell id="t71am8RYP-MXdgxq2AsJ-39" value="" style="swimlane;connectable=0;startSize=0;html=1;whiteSpace=wrap;collapsible=0;recursiveResize=0;expand=0;pointerEvents=0;" parent="t71am8RYP-MXdgxq2AsJ-38" vertex="1">
          <mxGeometry x="40" width="80" height="70" as="geometry" />
        </mxCell>
        <mxCell id="t71am8RYP-MXdgxq2AsJ-40" value="" style="swimlane;connectable=0;startSize=0;html=1;whiteSpace=wrap;collapsible=0;recursiveResize=0;expand=0;pointerEvents=0;" parent="t71am8RYP-MXdgxq2AsJ-38" vertex="1">
          <mxGeometry x="120" width="80" height="70" as="geometry" />
        </mxCell>
        <mxCell id="t71am8RYP-MXdgxq2AsJ-41" value="" style="swimlane;connectable=0;startSize=0;html=1;whiteSpace=wrap;collapsible=0;recursiveResize=0;expand=0;pointerEvents=0;" parent="t71am8RYP-MXdgxq2AsJ-38" vertex="1">
          <mxGeometry x="200" width="80" height="70" as="geometry" />
        </mxCell>
        <mxCell id="t71am8RYP-MXdgxq2AsJ-50" style="edgeStyle=orthogonalEdgeStyle;rounded=0;orthogonalLoop=1;jettySize=auto;html=1;exitX=0.5;exitY=1;exitDx=0;exitDy=0;exitPerimeter=0;" parent="1" source="t71am8RYP-MXdgxq2AsJ-45" target="t71am8RYP-MXdgxq2AsJ-48" edge="1">
          <mxGeometry relative="1" as="geometry" />
        </mxCell>
        <mxCell id="t71am8RYP-MXdgxq2AsJ-45" value="뉴스 데이터 db" style="shape=cylinder3;whiteSpace=wrap;html=1;boundedLbl=1;backgroundOutline=1;size=15;" parent="1" vertex="1">
          <mxGeometry x="70" y="320" width="140" height="80" as="geometry" />
        </mxCell>
        <mxCell id="t71am8RYP-MXdgxq2AsJ-58" style="edgeStyle=orthogonalEdgeStyle;rounded=0;orthogonalLoop=1;jettySize=auto;html=1;exitX=0.5;exitY=1;exitDx=0;exitDy=0;" parent="1" source="t71am8RYP-MXdgxq2AsJ-48" target="t71am8RYP-MXdgxq2AsJ-57" edge="1">
          <mxGeometry relative="1" as="geometry" />
        </mxCell>
        <mxCell id="t71am8RYP-MXdgxq2AsJ-48" value="&lt;table border=&quot;1&quot; width=&quot;100%&quot; cellpadding=&quot;4&quot; style=&quot;width: 100% ; height: 100% ; border-collapse: collapse&quot;&gt;&lt;tbody&gt;&lt;tr style=&quot;background-color: #a7c942 ; color: #ffffff ; border: 1px solid #98bf21&quot;&gt;&lt;th align=&quot;left&quot;&gt;상승&lt;/th&gt;&lt;th align=&quot;left&quot;&gt;횡보&lt;/th&gt;&lt;th align=&quot;left&quot;&gt;하락&lt;/th&gt;&lt;/tr&gt;&lt;tr style=&quot;border: 1px solid #98bf21&quot;&gt;&lt;td&gt;{단어:value}&lt;/td&gt;&lt;td&gt;{단어:value}&lt;/td&gt;&lt;td&gt;{단어:value}&lt;/td&gt;&lt;/tr&gt;&lt;tr style=&quot;background-color: #eaf2d3 ; border: 1px solid #98bf21&quot;&gt;&lt;td&gt;&lt;br&gt;&lt;/td&gt;&lt;td&gt;&lt;/td&gt;&lt;td&gt;&lt;/td&gt;&lt;/tr&gt;&lt;/tbody&gt;&lt;/table&gt;" style="text;html=1;strokeColor=#c0c0c0;fillColor=#ffffff;overflow=fill;rounded=0;" parent="1" vertex="1">
          <mxGeometry x="10" y="450" width="280" height="130" as="geometry" />
        </mxCell>
        <mxCell id="t71am8RYP-MXdgxq2AsJ-49" value="상승/횡보/하락 정의" style="text;html=1;strokeColor=none;fillColor=none;align=center;verticalAlign=middle;whiteSpace=wrap;rounded=0;" parent="1" vertex="1">
          <mxGeometry x="500" y="180" width="100" height="20" as="geometry" />
        </mxCell>
        <mxCell id="t71am8RYP-MXdgxq2AsJ-56" value="" style="endArrow=classic;html=1;entryX=1;entryY=0.5;entryDx=0;entryDy=0;" parent="1" target="t71am8RYP-MXdgxq2AsJ-48" edge="1">
          <mxGeometry width="50" height="50" relative="1" as="geometry">
            <mxPoint x="530" y="210" as="sourcePoint" />
            <mxPoint x="410" y="420" as="targetPoint" />
          </mxGeometry>
        </mxCell>
        <mxCell id="t71am8RYP-MXdgxq2AsJ-57" value="기존 논문 + value 변수 추가 성능 확인" style="rounded=1;whiteSpace=wrap;html=1;" parent="1" vertex="1">
          <mxGeometry x="160" y="820" width="390" height="70" as="geometry" />
        </mxCell>
        <mxCell id="t71am8RYP-MXdgxq2AsJ-59" value="" style="endArrow=classic;html=1;entryX=0.5;entryY=0;entryDx=0;entryDy=0;" parent="1" target="t71am8RYP-MXdgxq2AsJ-57" edge="1">
          <mxGeometry width="50" height="50" relative="1" as="geometry">
            <mxPoint x="580" y="760" as="sourcePoint" />
            <mxPoint x="410" y="690" as="targetPoint" />
            <Array as="points">
              <mxPoint x="580" y="780" />
              <mxPoint x="355" y="780" />
            </Array>
          </mxGeometry>
        </mxCell>
        <mxCell id="t71am8RYP-MXdgxq2AsJ-60" value="" style="shape=flexArrow;endArrow=classic;html=1;" parent="1" edge="1">
          <mxGeometry width="50" height="50" relative="1" as="geometry">
            <mxPoint x="360" y="900" as="sourcePoint" />
            <mxPoint x="360" y="930" as="targetPoint" />
          </mxGeometry>
        </mxCell>
        <mxCell id="t71am8RYP-MXdgxq2AsJ-62" value="자연언어 처리 기법(cbow embedding vector+ classifier, Bert) + &amp;nbsp;뉴스 데이터 만으로 예측 모델 구현&amp;nbsp;" style="shape=cube;whiteSpace=wrap;html=1;boundedLbl=1;backgroundOutline=1;darkOpacity=0.05;darkOpacity2=0.1;" parent="1" vertex="1">
          <mxGeometry x="95" y="950" width="520" height="100" as="geometry" />
        </mxCell>
        <mxCell id="P1XQ5DYVhUHTAm5iBN6K-2" value="이때까지 cbow classifier검증도 해야 함" style="text;html=1;strokeColor=none;fillColor=none;align=center;verticalAlign=middle;whiteSpace=wrap;rounded=0;" vertex="1" parent="1">
          <mxGeometry x="390" y="910" width="200" height="20" as="geometry" />
        </mxCell>
      </root>
    </mxGraphModel>
  </diagram>
</mxfile>
